<?xml version="1.0" encoding="utf-8"?>
<!-- Generator: Adobe Illustrator 25.2.0, SVG Export Plug-In . SVG Version: 6.00 Build 0)  -->
<svg version="1.1" id="Calque_1" xmlns="http://www.w3.org/2000/svg" xmlns:xlink="http://www.w3.org/1999/xlink" x="0px" y="0px"
	 viewBox="0 0 679.7 286.1" style="enable-background:new 0 0 679.7 286.1;" xml:space="preserve">
<style type="text/css">
	.st0{fill:#FFFFFF;}
</style>
<path class="st0" d="M203.3,41l-38.8-0.1L172.7,0h38.8L203.3,41z M99.8,70.6C84.6,64.9,61.4,64.2,61.4,52
	C61.4,41.4,71.8,38.9,79.9,39c5.4,0,10.4,0.9,13.9,3.6c3.5,2.7,5.6,6.8,5.4,13.4l44,0.1c1-39.7-28.7-52.7-61.7-52.7
	C50.3,3.3,16.4,19.9,16.3,56.2c-0.1,26.8,18.1,37.2,37,43.8c21.5,7.5,37.3,9.1,37.2,20.9c0,10.5-11.5,15.5-20.8,15.5
	c-7.8-0.1-13.5-0.5-17.6-4.2c-3.9-4.1-5.8-9.4-5.8-18.2l-46.2-0.1c-2,41,30,58,65.6,58.1c33.7,0.1,70-18.1,70.1-56.9
	C135.8,95.9,126.7,80.6,99.8,70.6z M160.5,60l-21.4,106h38.8l21.4-106H160.5z M590.3,20.9L560.8,167h38.9l29.5-146L590.3,20.9z
	 M322.5,60l-17.5,88.1c-6,30.1-11.4,55.8-60.9,55.7c-12,0-48.7-1.5-47.2-35.8l38.3,0.1c0,4.3,1,7.2,3.3,9.6c2,1.7,5.2,2.3,9.3,2.3
	c12.1,0,15.1-9.6,17.2-19.3l2.5-11.7h-0.8c-5.9,7-15,10.6-24.4,10.6c-24.4,0-39.8-16.3-39.7-41.5c0.1-30.4,17.4-61.3,49.2-61.2
	c12.6,0.1,24.2,3.9,30.2,16.4l0.5,0l2.5-13.3L322.5,60z M276.1,103.3c0-6.5-0.5-16.6-14.5-16.7c-15.3-0.1-20.5,17.6-20.6,30.1
	c0,9.5,4.5,17.1,13.3,17.2C273,134,276.1,110.5,276.1,103.3L276.1,103.3z M557.8,86.6c0,16.6-12.5,64.1-12.5,71.1
	c0.7,8.1,0,4.5,1.5,9.4h-38.1c-1-3.2-1.4-6.6-1.3-10h-0.4c-6.9,8.5-20.1,12.8-31.6,12.8c-17.5,0-33.1-8-33-28.3
	c0.1-28.1,20.2-35.7,49.6-37.9c11-0.7,28.5,0.9,28.5-12.2c0-7.4-6.3-9.3-12.1-9.3c-7.9,0-13.4,2.8-15.6,10.9l-36.5-0.1
	c6.2-28.2,27.2-34.6,52.1-34.6C526.8,58.4,557.8,60.9,557.8,86.6z M513,120c-6.6,3.4-14.2,4.2-21.5,4.8c-6.8,0.7-13.2,4.2-13.2,12.3
	c0,7.7,6.3,9.7,12.9,9.7C505,146.9,510.5,136.4,513,120z M406.2,58c-12.3,0-24,6.5-31.4,16h-0.7l3.1-14h-37.7l-21.4,106h39.3
	l11.4-55.9c2.4-11,6.5-20.1,18.8-20c6.2,0,10.9,3.4,10.9,10.2c0,4.2-2,11.3-3.2,17.4L385.3,166h38.7l12.4-59.4
	c1.6-7.7,2.8-15.4,2.8-20.1C439.2,65.8,424,58.1,406.2,58z"/>
<path class="st0" d="M679.7,142.4c-0.1,0.6-0.2,1.2-0.4,1.8v0c-4.9,16.2-15.3,18.3-25,18.3c-3,0-6.1-0.2-9.1-0.5
	c-3-0.2-5.9-0.4-8.6-0.4c-1.2,0-2.4,0.1-3.5,0.2c-0.4,0-0.9,0.1-1.3,0.1c-1.8,0.2-3.5,0.7-5.2,1.3c-4,1.5-4.9,3.2-4.9,3.2
	c-0.1-0.8-0.1-1.7,0.1-2.5h0c4-18.5,16.9-21.4,27.2-21.4c3.8,0,7.6,0.3,11.3,0.7c3.5,0.3,6.9,0.6,10.1,0.6c2.6,0.1,5.1-0.3,7.6-0.9
	h0C678.7,142.9,679.2,142.7,679.7,142.4z M642.9,183c-17-0.2-19.5,1.4-24.1,7.6c-27.2,41.7-77.1,69.7-134.2,69.7
	c-55.4,0-104.1-26.4-131.8-66.1c-4-4.7-7.8-6.2-23.1-6.2h-10.5c28.7,57.8,92,98.1,165.4,98.1c48.4,0,93.9-17.3,128.1-48.7
	c16.8-15.3,30.4-33.8,39.9-54.4H642.9z"/>
</svg>
