<svg xmlns="http://www.w3.org/2000/svg" viewBox="0 0 679.74749 286.08888"><defs><style>.a{fill:#2a316b;}.b{fill:#ed193f;}</style></defs><path class="a" d="M203.29973,41l-38.81323-.07567L172.71992,0h38.787ZM99.79936,70.601c-15.16878-5.65311-38.4301-6.39975-38.42225-18.57552.05507-10.64071,10.46969-13.089,18.54462-13.05267,5.40195,0,10.389.94082,13.85438,3.64522,3.47609,2.65577,5.627,6.819,5.40194,13.382l44.03852.0856C144.17994,16.38589,114.508,3.3966,81.4887,3.34691,50.25076,3.26635,16.38607,19.89247,16.29557,56.2114c-.053,26.79944,18.11206,37.19634,36.98988,43.84483,21.45157,7.4806,37.25927,9.09237,37.22193,20.85772-.03443,10.52325-11.52153,15.48778-20.81151,15.48778-7.841-.07177-13.48576-.50384-17.59012-4.15449-3.88008-4.05071-5.8335-9.44772-5.7873-18.24725L.09267,113.90566c-2.04383,41.03614,30.02981,58.03151,65.56276,58.1042,33.71137.09442,69.95308-18.09435,70.07106-56.87587C135.7718,95.93325,126.67048,80.6023,99.79936,70.601ZM160.48347,60,139.09666,166h38.82739l21.3878-106ZM590.27819,20.88816,560.83733,167h38.922L629.29986,21ZM322.4508,60l-17.53208,88.12676c-5.99234,30.05993-11.40268,55.82307-60.936,55.69325-12.03264-.03522-48.70957-1.54267-47.22911-35.82l38.27025.08221c0,4.272,1.00834,7.23338,3.28573,9.56487,1.99062,1.72909,5.24021,2.313,9.26167,2.313,12.10439.04054,15.11651-9.64719,17.16326-19.29479L267.19533,149H266.36c-5.88269,7.004-14.96364,10.64787-24.37319,10.603-24.3518-.04433-39.78932-16.27754-39.73671-41.51961.05463-30.38468,17.3682-61.27979,49.19889-61.19881,12.61767.05751,24.17239,3.90958,30.18087,16.44679l.47287.01757,2.546-13.349ZM276.135,103.3164c0-6.5405-.5274-16.6411-14.461-16.6636-15.33591-.0542-20.5224,17.5806-20.5683,30.1182-.01759,9.48781,4.4726,17.1338,13.334,17.16061,18.57418.03569,21.66008-23.39841,21.69527-30.61521ZM557.75139,86.57046c-.01745,16.587-12.492,64.08022-12.492,71.05811.73035,8.14061-.01758,4.48534,1.5152,9.37143H508.68a29.60313,29.60313,0,0,1-1.29541-10h-.44269c-6.883,8.5324-20.0975,12.798-31.56588,12.7663-17.52222-.02643-33.05393-8.04894-33.01087-28.31363.06256-28.09847,20.17179-35.65413,49.58289-37.85248,11.01077-.721,28.53107.94009,28.53107-12.16741.03717-7.386-6.26508-9.29688-12.12928-9.315-7.89,0-13.40423,2.83828-15.64123,10.88221l-36.47116-.08905c6.17785-28.16115,27.21414-34.64335,52.14761-34.5908C526.83477,58.35136,557.804,60.86177,557.75139,86.57046ZM513.02947,120.0439c-6.55469,3.3936-14.1738,4.1895-21.4707,4.7754-6.832.6612-13.18161,4.2432-13.18161,12.3496-.01761,7.70371,6.31439,9.6539,12.88669,9.6749C504.95525,146.87109,510.50014,136.4268,513.02947,120.0439ZM406.24773,58.01913C393.93731,58.0003,382.23684,64.48885,374.81646,74h-.6883L377.208,60H339.50014L318.07436,166h39.32678l11.43345-55.88978c2.3927-10.96006,6.5046-20.08058,18.844-20.05,6.16968.03192,10.89325,3.39022,10.86807,10.15859-.00961,4.22272-1.98623,11.33175-3.17285,17.41679L385.28579,166h38.65408L436.376,106.60482c1.58557-7.72039,2.76449-15.419,2.76449-20.07186C439.17724,65.84012,424.00182,58.05352,406.24773,58.01913Z"/><path class="b" d="M679.74749,142.38834a15.29809,15.29809,0,0,1-.40552,1.81717v.0307c-4.86621,16.15542-15.33667,18.33009-24.95386,18.33009-3.02691,0-6.1231-.234-9.11743-.46316-3.027-.22829-5.85986-.445-8.62353-.445-1.24152,0-2.37537.062-3.4574.15085a9.352,9.352,0,0,0-1.31268.13647,20.74332,20.74332,0,0,0-5.191,1.328c-3.95917,1.48319-4.91816,3.22155-4.91816,3.22155a8.4545,8.4545,0,0,1,.08844-2.495h.01532c4.03986-18.54962,16.86078-21.37334,27.21009-21.37334,3.765,0,7.59149.334,11.30652.66834,3.54785.31183,6.92456.62463,10.07641.62463A26.85148,26.85148,0,0,0,678.06579,143H678.11A7.07872,7.07872,0,0,0,679.74749,142.38834ZM642.93767,183c-17.04492-.23289-19.47662,1.3989-24.082,7.62351-27.17779,41.6587-77.14648,69.66069-134.209,69.66069-55.38089,0-104.1192-26.4058-131.77539-66.08451-4.00781-4.69529-7.8262-6.2017-23.082-6.1997H319.27358c28.68561,57.8296,92.02741,98.08889,165.37308,98.08889,48.35162,0,93.86127-17.2774,128.1289-48.6831A168.71425,168.71425,0,0,0,652.64855,183Z"/></svg>